<svg width="512" height="512" viewBox="0 0 512 512" fill="none" xmlns="http://www.w3.org/2000/svg">
<g clip-path="url(#clip0_1_2)">
<path d="M186 451H326C334.284 451 341 444.284 341 436V416C341 384.829 324.123 357.539 299.038 342.745C309.525 331.936 316 317.214 316 301C316 267.916 289.084 241 256 241C222.916 241 196 267.916 196 301C196 317.214 202.475 331.936 212.963 342.745C187.877 357.539 171 384.829 171 416V436C171 444.284 177.716 451 186 451ZM226 301C226 284.458 239.458 271 256 271C272.542 271 286 284.458 286 301C286 317.542 272.542 331 256 331C239.458 331 226 317.542 226 301ZM201 416C201 385.673 225.673 361 256 361C286.327 361 311 385.673 311 416V421H201V416Z" fill="#626262"/>
<path d="M457 60H454.802C452.621 46.397 447.494 33.806 439.819 23.574C428.584 8.592 412.612 0 396 0C379.388 0 363.416 8.592 352.181 23.574C344.506 33.806 339.378 46.397 337.198 60H314.803C312.622 46.397 307.495 33.806 299.82 23.574C288.584 8.592 272.612 0 256 0C239.388 0 223.416 8.592 212.181 23.574C204.506 33.806 199.379 46.397 197.198 60H174.803C172.622 46.397 167.495 33.806 159.82 23.574C148.584 8.592 132.612 0 116 0C99.388 0 83.416 8.592 72.181 23.574C64.506 33.806 59.379 46.397 57.198 60H55C24.673 60 0 84.673 0 115V457C0 487.327 24.673 512 55 512H457C487.327 512 512 487.327 512 457V115C512 84.673 487.327 60 457 60V60ZM396 30C408.775 30 419.989 42.72 424.212 60H367.789C372.011 42.72 383.225 30 396 30ZM256 30C268.775 30 279.989 42.72 284.212 60H227.789C232.011 42.72 243.225 30 256 30ZM116 30C128.775 30 139.989 42.72 144.212 60H87.788C92.011 42.72 103.225 30 116 30V30ZM30 115C30 101.215 41.215 90 55 90H57.198C59.379 103.603 64.506 116.194 72.181 126.426C83.416 141.408 99.388 150 116 150C124.284 150 131 143.284 131 135C131 126.716 124.284 120 116 120C103.225 120 92.011 107.28 87.788 90H197.197C199.378 103.603 204.505 116.194 212.18 126.426C223.416 141.408 239.388 150 256 150C264.284 150 271 143.284 271 135C271 126.716 264.284 120 256 120C243.225 120 232.011 107.28 227.788 90H337.197C339.378 103.603 344.505 116.194 352.18 126.426C363.416 141.408 379.388 150 396 150C404.284 150 411 143.284 411 135C411 126.716 404.284 120 396 120C383.225 120 372.011 107.28 367.788 90H457C470.785 90 482 101.215 482 115V180H30V115ZM482 457C482 470.785 470.785 482 457 482H55C41.215 482 30 470.785 30 457V210H482V457Z" fill="#626262"/>
</g>
<defs>
<clipPath id="clip0_1_2">
<rect width="512" height="512" fill="white"/>
</clipPath>
</defs>
</svg>
